# xmcd
#
# Track frame offsets:
#	183
#	11020
#	22058
#	38170
#	47358
#	59308
#	71920
#	82020
#	94270
#	107520
#	122433
#	134083
#	153133
#	165958
#	179508
#	191495
#	203170
#	212983
#	225945
#	235883
#
# Disc length: 3317
#
# Revision: 1
# Processed by: cddbd v1.5.1PL0 Copyright (c) Steve Scherf et al.
# Submitted via: FreeRIP 2.35 
# Normalized: r0:DSETVAR1,TDELIM( - )
#
DISCID=0b0cf314
DTITLE=Various Artist - Giants of Country (4)
DYEAR=1900
DGENRE=Country
TTITLE0=Don Williams - Spend Some Time With Me
TTITLE1=Dolly Parton - Honky Tonk
TTITLE2=Roy Charles - Your Cheatin Heart
TTITLE3=Franki Laine - Rawhide
TTITLE4=Dolly Parton - Makin Believe
TTITLE5=Frankie Laine - High Noon
TTITLE6=Don Willias - Take My Hand For A While
TTITLE7=Dolly Parton - Two Little Orphans
TTITLE8=Ray Charles - Take These Chains From My Heart
TTITLE9=Frankie Laine - Jezebel
TTITLE10=Dn Williams - Follow Me Back To Luisville
TTITLE11=Ray Charles - I Can't Stop Loving You
TTITLE12=Dolly Parton - Little Blossom
TTITLE13=Don Williams - Ruby Tuesday
TTITLE14=Ray Charles - Together Again
TTITLE15=Frankie Laine - Mule Train
TTITLE16=Dolly Parton - Release Me
TTITLE17=Don Williams - Where Do I Go From Here
TTITLE18=Ray Charles - Hey Good Looking
TTITLE19=Frankie Laine - Moonlight Gambler
EXTD=
EXTT0=
EXTT1=
EXTT2=
EXTT3=
EXTT4=
EXTT5=
EXTT6=
EXTT7=
EXTT8=
EXTT9=
EXTT10=
EXTT11=
EXTT12=
EXTT13=
EXTT14=
EXTT15=
EXTT16=
EXTT17=
EXTT18=
EXTT19=
PLAYORDER=
